<?xml version="1.0" standalone="no"?>
<!DOCTYPE svg PUBLIC "-//W3C//DTD SVG 20010904//EN"
 "http://www.w3.org/TR/2001/REC-SVG-20010904/DTD/svg10.dtd">
<svg version="1.0" xmlns="http://www.w3.org/2000/svg"
 width="688.000000pt" height="688.000000pt" viewBox="0 0 688.000000 688.000000"
 preserveAspectRatio="xMidYMid meet">
<metadata>
Created by potrace 1.11, written by Peter Selinger 2001-2013
</metadata>
<g transform="translate(0.000000,688.000000) scale(0.100000,-0.100000)"
fill="#000000" stroke="none">
<path d="M4729 6055 c-4 -50 -3 -568 1 -573 3 -4 145 -7 315 -8 290 -1 313 -2
356 -21 57 -26 100 -69 128 -128 42 -89 48 -172 50 -650 3 -547 6 -614 41
-745 63 -242 187 -388 403 -475 33 -14 75 -27 94 -31 18 -4 32 -8 30 -11 -2
-2 -35 -12 -72 -23 -195 -56 -320 -160 -407 -340 -19 -39 -55 -159 -62 -205
-2 -16 -5 -30 -6 -30 -12 0 -19 -258 -20 -670 -1 -395 -7 -494 -34 -590 -28
-102 -110 -175 -213 -190 -40 -6 -157 -9 -178 -5 -5 1 -14 2 -19 1 -8 -2 -109
-2 -156 0 -15 0 -121 0 -200 -2 -24 0 -46 -2 -49 -4 -3 -4 -5 -486 -2 -563 l1
-24 388 5 c213 3 401 7 417 10 17 2 50 7 75 11 117 19 231 61 317 118 84 56
142 126 196 234 36 72 80 216 91 294 16 119 18 194 21 730 2 562 5 623 28 705
6 22 11 42 12 45 0 3 11 25 24 50 42 79 108 130 191 147 14 3 105 6 202 7
l178 1 -1 292 -1 293 -36 0 c-21 1 -98 1 -172 1 -74 0 -157 5 -185 11 -126 27
-205 139 -231 328 -4 30 -8 307 -10 615 -3 647 -5 689 -44 840 -48 186 -140
336 -257 416 -40 28 -203 103 -203 94 0 -2 -21 2 -47 10 -102 30 -223 38 -585
39 -249 1 -368 -2 -369 -9z"/>
<path d="M1397 6004 c-2 -2 -21 -6 -43 -8 -430 -47 -638 -267 -689 -731 -4
-27 -7 -309 -9 -625 -2 -316 -7 -593 -10 -615 -30 -172 -80 -259 -176 -304
-57 -27 -70 -28 -402 -31 l-48 0 0 -288 0 -289 180 -1 c232 -1 263 -8 336 -74
32 -29 79 -114 88 -160 3 -13 8 -34 11 -48 3 -14 8 -38 11 -55 3 -16 7 -289 9
-605 1 -316 6 -600 10 -630 16 -126 23 -164 47 -240 27 -83 54 -144 90 -197
15 -23 28 -44 28 -47 0 -19 155 -146 178 -146 6 0 12 -4 14 -9 4 -12 172 -67
243 -80 33 -6 89 -14 125 -17 93 -9 753 -12 765 -3 8 6 13 481 6 564 -1 6
-108 10 -299 11 -247 0 -306 3 -352 17 -68 20 -111 57 -144 122 -48 97 -55
173 -56 630 -1 530 -4 595 -36 734 -41 182 -132 323 -264 411 -50 33 -188 90
-234 96 -45 6 -42 11 21 29 224 65 375 204 448 413 13 38 27 85 30 103 3 19 8
41 10 49 19 68 23 174 25 676 2 463 7 528 53 629 28 60 76 103 144 127 41 14
94 17 348 18 164 0 302 4 305 9 4 7 5 497 1 559 -1 11 -74 13 -381 11 -208 -1
-381 -3 -383 -5z"/>
<path d="M3130 5139 c-47 -10 -89 -20 -95 -22 -5 -2 -19 -7 -30 -11 -303 -108
-512 -379 -551 -716 -34 -296 40 -559 253 -894 26 -41 29 -52 18 -63 -8 -7
-17 -13 -22 -13 -4 0 -26 -16 -48 -35 -22 -19 -43 -35 -47 -35 -10 0 -115
-108 -161 -165 -108 -136 -190 -315 -213 -465 -27 -176 -23 -335 12 -462 8
-29 17 -63 19 -74 5 -21 23 -67 52 -134 25 -56 102 -166 152 -219 50 -53 155
-128 235 -168 52 -26 186 -75 186 -68 0 3 12 0 26 -5 57 -22 300 -33 394 -18
189 31 420 147 572 288 24 22 46 40 49 40 8 0 71 -137 100 -217 12 -32 25 -62
29 -68 8 -10 615 -14 625 -3 5 4 -45 162 -64 203 -6 11 -31 65 -57 120 -51
110 -145 275 -211 373 -24 34 -43 67 -43 74 0 6 11 34 24 62 49 105 66 146 66
159 0 8 3 16 6 20 10 9 49 130 77 237 25 93 32 121 42 178 15 83 18 100 21
127 1 17 6 57 9 90 3 33 8 90 9 127 4 76 7 73 -84 83 -55 7 -90 11 -165 21
-22 3 -56 7 -75 9 -19 2 -46 6 -60 9 -14 3 -48 7 -75 10 -28 2 -55 5 -60 6
-27 6 -30 -6 -31 -103 -1 -56 -5 -129 -9 -162 -3 -33 -8 -80 -10 -105 -2 -25
-7 -56 -9 -70 -3 -13 -8 -42 -11 -65 -3 -22 -9 -53 -12 -70 -9 -41 -10 -44
-13 -50 -3 -7 -7 -22 -9 -37 -1 -7 -11 -2 -22 12 -11 14 -30 36 -42 50 -12 14
-56 66 -97 115 -41 50 -77 92 -80 95 -3 3 -35 41 -70 85 -35 44 -71 88 -79 97
-9 9 -20 23 -26 30 -5 8 -18 23 -28 34 -18 22 -14 54 7 54 11 0 151 88 190
120 47 38 122 108 145 134 14 16 33 37 41 45 73 76 175 278 206 406 13 53 14
59 22 115 12 80 6 223 -13 310 -36 173 -159 357 -295 446 -25 16 -47 31 -50
35 -16 19 -171 80 -235 93 -16 4 -41 9 -55 12 -67 15 -248 11 -330 -7z m285
-503 c32 -16 71 -55 96 -96 29 -47 42 -116 37 -207 -9 -157 -81 -317 -198
-433 -59 -60 -147 -127 -154 -118 -2 2 -21 35 -43 73 -128 223 -161 389 -119
591 16 77 93 164 171 193 60 23 164 22 210 -3z m-334 -1628 c19 -23 41 -49 50
-57 9 -9 62 -70 119 -136 57 -66 109 -125 114 -132 6 -7 22 -26 36 -43 14 -17
34 -41 45 -53 28 -32 73 -87 156 -192 l71 -90 -68 -62 c-111 -101 -245 -154
-399 -157 -132 -3 -229 28 -295 94 -42 42 -92 133 -106 190 -4 19 -10 42 -12
50 -10 33 -10 218 -1 270 18 97 71 192 158 280 43 44 83 80 88 80 6 0 26 -19
44 -42z"/>
</g>
</svg>
