<?xml version="1.0" encoding="UTF-8" standalone="no"?>
<!-- Created with Inkscape (http://www.inkscape.org/) -->

<svg
   xmlns:dc="http://purl.org/dc/elements/1.1/"
   xmlns:cc="http://creativecommons.org/ns#"
   xmlns:rdf="http://www.w3.org/1999/02/22-rdf-syntax-ns#"
   xmlns:svg="http://www.w3.org/2000/svg"
   xmlns="http://www.w3.org/2000/svg"
   xmlns:sodipodi="http://sodipodi.sourceforge.net/DTD/sodipodi-0.dtd"
   xmlns:inkscape="http://www.inkscape.org/namespaces/inkscape"
   width="64"
   height="64"
   viewBox="0 0 64 64"
   id="svg2"
   version="1.1"
   inkscape:version="0.91 r13725"
   sodipodi:docname="logo_alt.svg">
  <defs
     id="defs4" />
  <sodipodi:namedview
     id="base"
     pagecolor="#ffffff"
     bordercolor="#666666"
     borderopacity="1.0"
     inkscape:pageopacity="0.0"
     inkscape:pageshadow="2"
     inkscape:zoom="5.6"
     inkscape:cx="0.79437719"
     inkscape:cy="27.284751"
     inkscape:document-units="px"
     inkscape:current-layer="layer1"
     showgrid="true"
     inkscape:window-width="1366"
     inkscape:window-height="704"
     inkscape:window-x="0"
     inkscape:window-y="27"
     inkscape:window-maximized="1"
     units="px">
    <inkscape:grid
       type="xygrid"
       id="grid4302" />
  </sodipodi:namedview>
  <metadata
     id="metadata7">
    <rdf:RDF>
      <cc:Work
         rdf:about="">
        <dc:format>image/svg+xml</dc:format>
        <dc:type
           rdf:resource="http://purl.org/dc/dcmitype/StillImage" />
        <dc:title></dc:title>
      </cc:Work>
    </rdf:RDF>
  </metadata>
  <g
     inkscape:label="Camada 1"
     inkscape:groupmode="layer"
     id="layer1"
     transform="translate(0,-988.36196)">
    <g
       style="font-style:normal;font-weight:normal;font-size:40px;line-height:125%;font-family:sans-serif;letter-spacing:0px;word-spacing:0px;fill:#000000;fill-opacity:1;stroke:none;stroke-width:1px;stroke-linecap:butt;stroke-linejoin:miter;stroke-opacity:1"
       id="text4304" />
    <g
       id="g4274">
      <g
         id="flowRoot4262-9"
         style="font-style:normal;font-weight:normal;font-size:40px;line-height:125%;font-family:sans-serif;letter-spacing:0px;word-spacing:0px;fill:#ffffff;fill-opacity:1;stroke:none;stroke-width:1px;stroke-linecap:butt;stroke-linejoin:miter;stroke-opacity:1"
         transform="matrix(-1.3302233,0,0,1.4898506,253.45802,551.63855)">
        <path
           inkscape:connector-curvature="0"
           id="path4281"
           style="font-style:normal;font-variant:normal;font-weight:bold;font-stretch:normal;font-family:'Ubuntu Mono';-inkscape-font-specification:'Ubuntu Mono Bold';fill:#ffffff;fill-opacity:1"
           d="m 147.48,314.65102 q 2.16,0.4 3.08,1.76 0.96,1.36 0.96,3.92 l 0,4.52 q 0,1.68 0.48,2.44 0.48,0.76 1.76,0.76 l 3.72,0 0,3.84 -4.16,0 q -3.6,0 -5,-1.56 -1.36,-1.56 -1.36,-4.52 l 0,-5.88 q 0,-1.68 -0.52,-2.52 -0.52,-0.88 -1.76,-0.88 l -2.16,0 0,-3.84 2.16,0 q 1.24,0 1.76,-0.84 0.52,-0.88 0.52,-2.52 l 0,-5.92 q 0,-2.96 1.36,-4.52 1.4,-1.56 5,-1.56 l 4.16,0 0,3.84 -3.72,0 q -1.28,0 -1.76,0.76 -0.48,0.72 -0.48,2.44 l 0,4.52 q 0,2.56 -0.96,3.92 -0.92,1.36 -3.08,1.84 z" />
      </g>
      <g
         id="flowRoot4270"
         style="font-style:normal;font-weight:normal;font-size:40px;line-height:125%;font-family:sans-serif;letter-spacing:0px;word-spacing:0px;fill:#fbc02d;fill-opacity:1;stroke:none;stroke-width:1px;stroke-linecap:butt;stroke-linejoin:miter;stroke-opacity:1"
         transform="matrix(1.315388,0,0,1.3541409,1032.2256,544.88854)">
        <path
           inkscape:connector-curvature="0"
           id="path4278"
           style="font-style:normal;font-variant:normal;font-weight:bold;font-stretch:normal;font-family:'Ubuntu Mono';-inkscape-font-specification:'Ubuntu Mono Bold';fill:#fbc02d;fill-opacity:1"
           d="m -756.07847,363.62551 q -0.44,-1.16 -0.96,-2.12 -1.36,1.2 -2.8,1.84 -1.44,0.6 -2.84,0.6 -1.8,0 -3.16,-0.56 -1.32,-0.56 -2.24,-1.48 -0.88,-0.96 -1.32,-2.2 -0.44,-1.24 -0.44,-2.6 0,-1.92 0.96,-3.64 1,-1.76 2.96,-2.96 -0.96,-1.32 -1.6,-2.76 -0.6,-1.44 -0.6,-3 0,-1.6 0.56,-2.8 0.56,-1.24 1.48,-2.04 0.92,-0.8 2.04,-1.2 1.16,-0.4 2.36,-0.4 1.12,0 2.2,0.36 1.08,0.36 1.92,1.08 0.84,0.68 1.36,1.76 0.52,1.04 0.52,2.44 0,1.92 -1.16,3.76 -1.16,1.8 -3.64,3.08 0.8,0.96 1.68,1.96 0.88,1 1.8,2.04 0.56,-2.04 0.6,-4.84 l 4.08,0.52 q -0.04,2.24 -0.6,4.16 -0.52,1.92 -1.36,3.48 0.96,1.32 1.72,2.72 0.76,1.4 1.16,2.8 l -4.68,0 z m -2.92,-5 q -1.12,-1.4 -2.32,-2.72 -1.2,-1.32 -2.36,-2.6 -0.88,0.6 -1.44,1.48 -0.52,0.84 -0.52,2.08 0,1.36 0.68,2.36 0.72,1 2.4,1 0.92,0 1.84,-0.36 0.92,-0.36 1.72,-1.24 z m -4.88,-14.12 q 0,0.88 0.36,1.8 0.36,0.88 1,1.84 1.28,-0.72 1.96,-1.88 0.68,-1.2 0.68,-2.28 0,-1.04 -0.52,-1.56 -0.48,-0.56 -1.28,-0.56 -1,0 -1.6,0.68 -0.6,0.68 -0.6,1.96 z" />
      </g>
      <g
         id="flowRoot4262-9-7"
         style="font-style:normal;font-weight:normal;font-size:40px;line-height:125%;font-family:sans-serif;letter-spacing:0px;word-spacing:0px;fill:#ffffff;fill-opacity:1;stroke:none;stroke-width:1px;stroke-linecap:butt;stroke-linejoin:miter;stroke-opacity:1"
         transform="matrix(1.3302233,0,0,1.4898506,-189.36931,551.63855)">
        <path
           inkscape:connector-curvature="0"
           id="path4281-5"
           style="font-style:normal;font-variant:normal;font-weight:bold;font-stretch:normal;font-family:'Ubuntu Mono';-inkscape-font-specification:'Ubuntu Mono Bold';fill:#ffffff;fill-opacity:1"
           d="m 147.48,314.65102 q 2.16,0.4 3.08,1.76 0.96,1.36 0.96,3.92 l 0,4.52 q 0,1.68 0.48,2.44 0.48,0.76 1.76,0.76 l 3.72,0 0,3.84 -4.16,0 q -3.6,0 -5,-1.56 -1.36,-1.56 -1.36,-4.52 l 0,-5.88 q 0,-1.68 -0.52,-2.52 -0.52,-0.88 -1.76,-0.88 l -2.16,0 0,-3.84 2.16,0 q 1.24,0 1.76,-0.84 0.52,-0.88 0.52,-2.52 l 0,-5.92 q 0,-2.96 1.36,-4.52 1.4,-1.56 5,-1.56 l 4.16,0 0,3.84 -3.72,0 q -1.28,0 -1.76,0.76 -0.48,0.72 -0.48,2.44 l 0,4.52 q 0,2.56 -0.96,3.92 -0.92,1.36 -3.08,1.84 z" />
      </g>
    </g>
  </g>
</svg>
